# xmcd
#
# Track frame offsets:
#  150
#  18080
#  37655
#  52765
#  67370
#  87608
#  108020
#  124485
#  135708
#
# Disc length: 2537 seconds
#
# Revision: 2
# Processed by: cddbd v1.5.1PL2 Copyright (c) Steve Scherf et al.
# Submitted via: Collectorz.com_Music_Collector 6.11
#
DISCID=7309e709
DTITLE=Harvey Mandel - Twist City
DYEAR=1993
DGENRE=Blues Rock
TTITLE0=Twist City
TTITLE1=Shot Gun Man
TTITLE2=Electric Voodoo Doll
TTITLE3=Jack's Coffee Shop
TTITLE4=I Had A Dream
TTITLE5=Bear Down
TTITLE6=Crosscut Saw
TTITLE7=Uptown
TTITLE8=Never Let You Go
EXTD=
EXTT0=
EXTT1=
EXTT2=
EXTT3=
EXTT4=
EXTT5=
EXTT6=
EXTT7=
EXTT8=
PLAYORDER=
